<svg width="23" height="23" viewBox="0 0 23 23" fill="none" xmlns="http://www.w3.org/2000/svg">
<g clip-path="url(#clip0_123_74)">
<path d="M21.8278 11.5628C21.8279 11.5418 21.8286 11.521 21.8286 11.5C21.8288 9.93516 21.4803 8.38993 20.8083 6.9767C20.1363 5.56347 19.1578 4.31776 17.944 3.33016C17.9247 3.3121 17.9057 3.29374 17.8849 3.27676C17.8583 3.25501 17.8306 3.23532 17.8027 3.21629C16.2553 1.99553 14.3964 1.23352 12.4374 1.01692C10.4784 0.800313 8.49788 1.13783 6.72118 1.99106C6.6688 2.01248 6.61805 2.03766 6.5693 2.0664C5.13375 2.78616 3.88082 3.82317 2.90541 5.09888C1.93001 6.37459 1.2577 7.85555 0.93943 9.42958C0.938667 9.43339 0.937428 9.43697 0.936712 9.44078C0.935997 9.44441 0.935854 9.44798 0.935187 9.45166C0.550385 11.3973 0.722245 13.412 1.43102 15.2643C2.1398 17.1167 3.35675 18.7315 4.94204 19.9233C4.9945 19.97 5.05104 20.0119 5.11099 20.0485L5.11538 20.051C6.48977 21.0443 8.08369 21.691 9.76162 21.9362C11.4396 22.1814 13.1519 22.0178 14.753 21.4593C14.7964 21.4467 14.839 21.4317 14.8806 21.4143C16.9004 20.6781 18.6477 19.3433 19.8889 17.588C21.1302 15.8328 21.8065 13.7406 21.8275 11.5909C21.8276 11.5815 21.8279 11.5721 21.8278 11.5628ZM19.4003 10.3317C19.2984 10.3299 19.1965 10.3279 19.0948 10.3279C17.7327 10.3287 16.3757 10.4947 15.0536 10.8223C14.7661 10.0264 14.4184 9.2536 14.0137 8.51047C15.1914 7.76357 16.2716 6.87304 17.2294 5.8594C18.3995 7.08884 19.1582 8.65181 19.4003 10.3317ZM15.3825 4.40004C14.5913 5.21324 13.7071 5.93049 12.7483 6.53699C11.8889 5.38189 10.8855 4.34122 9.76258 3.44022C11.6904 3.07404 13.6856 3.4148 15.3825 4.40004ZM7.13445 4.42679C8.47117 5.29755 9.65566 6.38212 10.6405 7.63714C8.86502 8.38331 6.95824 8.76693 5.03231 8.76544C4.54498 8.76544 4.0577 8.74031 3.57395 8.69191C4.23178 6.90121 5.49005 5.39392 7.13445 4.42679ZM3.07861 11.5C3.07861 11.3313 3.08538 11.1641 3.09545 10.9979C3.73842 11.0718 4.3851 11.109 5.03231 11.1092C7.41792 11.1113 9.77656 10.6048 11.9509 9.62332C12.288 10.2407 12.5792 10.882 12.8221 11.5421C12.0986 11.8322 11.3963 12.1728 10.7205 12.5614C8.65958 13.7516 6.87321 15.3635 5.4783 17.2918C4.71699 16.5317 4.11315 15.6289 3.70137 14.635C3.28959 13.6411 3.07796 12.5758 3.07861 11.5ZM7.35284 18.6989C8.55723 17.0238 10.104 15.624 11.8906 14.5921C12.3956 14.3018 12.9179 14.0427 13.4545 13.8162C13.6277 14.7165 13.7151 15.6313 13.7156 16.5481C13.7154 17.5111 13.6195 18.4718 13.4296 19.4159C11.3875 19.9717 9.20949 19.7147 7.35284 18.6989ZM15.9752 18.2218C16.0303 17.6667 16.0594 17.1081 16.0594 16.5481C16.0587 15.3817 15.937 14.2185 15.696 13.0772C16.809 12.8083 17.9498 12.6722 19.0948 12.6717C19.1962 12.6717 19.2978 12.6734 19.3994 12.6755C19.2375 13.7847 18.8501 14.8491 18.2613 15.803C17.6724 16.7568 16.8944 17.58 15.9752 18.2218Z" fill="white"/>
<mask id="mask0_123_74" style="mask-type:luminance" maskUnits="userSpaceOnUse" x="-1" y="-1" width="24" height="24">
<path d="M22.7349 -0.046875H-0.265137V22.9531H22.7349V-0.046875Z" fill="white"/>
<path d="M21.8278 11.5628C21.8279 11.5418 21.8286 11.521 21.8286 11.5C21.8288 9.93516 21.4803 8.38993 20.8083 6.9767C20.1363 5.56347 19.1578 4.31776 17.944 3.33016C17.9247 3.3121 17.9057 3.29374 17.8849 3.27676C17.8583 3.25501 17.8306 3.23532 17.8027 3.21629C16.2553 1.99553 14.3964 1.23352 12.4374 1.01692C10.4784 0.800313 8.49788 1.13783 6.72118 1.99106C6.6688 2.01248 6.61805 2.03766 6.5693 2.0664C5.13375 2.78616 3.88082 3.82317 2.90541 5.09888C1.93001 6.37459 1.2577 7.85555 0.93943 9.42958C0.938667 9.43339 0.937428 9.43697 0.936712 9.44078C0.935997 9.44441 0.935854 9.44798 0.935187 9.45166C0.550385 11.3973 0.722245 13.412 1.43102 15.2643C2.1398 17.1167 3.35675 18.7315 4.94204 19.9233C4.9945 19.97 5.05104 20.0119 5.11099 20.0485L5.11538 20.051C6.48977 21.0443 8.08369 21.691 9.76162 21.9362C11.4396 22.1814 13.1519 22.0178 14.753 21.4593C14.7964 21.4467 14.839 21.4317 14.8806 21.4143C16.9004 20.6781 18.6477 19.3433 19.8889 17.588C21.1302 15.8328 21.8065 13.7406 21.8275 11.5909C21.8276 11.5815 21.8279 11.5721 21.8278 11.5628ZM19.4003 10.3317C19.2984 10.3299 19.1965 10.3279 19.0948 10.3279C17.7327 10.3287 16.3757 10.4947 15.0536 10.8223C14.7661 10.0264 14.4184 9.2536 14.0137 8.51047C15.1914 7.76357 16.2716 6.87304 17.2294 5.8594C18.3995 7.08884 19.1582 8.65181 19.4003 10.3317ZM15.3825 4.40004C14.5913 5.21324 13.7071 5.93049 12.7483 6.53699C11.8889 5.38189 10.8855 4.34122 9.76258 3.44022C11.6904 3.07404 13.6856 3.4148 15.3825 4.40004ZM7.13445 4.42679C8.47117 5.29755 9.65566 6.38212 10.6405 7.63714C8.86502 8.38331 6.95824 8.76693 5.03231 8.76544C4.54498 8.76544 4.0577 8.74031 3.57395 8.69191C4.23178 6.90121 5.49005 5.39392 7.13445 4.42679ZM3.07861 11.5C3.07861 11.3313 3.08538 11.1641 3.09545 10.9979C3.73842 11.0718 4.3851 11.109 5.03231 11.1092C7.41792 11.1113 9.77656 10.6048 11.9509 9.62332C12.288 10.2407 12.5792 10.882 12.8221 11.5421C12.0986 11.8322 11.3963 12.1728 10.7205 12.5614C8.65958 13.7516 6.87321 15.3635 5.4783 17.2918C4.71699 16.5317 4.11315 15.6289 3.70137 14.635C3.28959 13.6411 3.07796 12.5758 3.07861 11.5ZM7.35284 18.6989C8.55723 17.0238 10.104 15.624 11.8906 14.5921C12.3956 14.3018 12.9179 14.0427 13.4545 13.8162C13.6277 14.7165 13.7151 15.6313 13.7156 16.5481C13.7154 17.5111 13.6195 18.4718 13.4296 19.4159C11.3875 19.9717 9.20949 19.7147 7.35284 18.6989ZM15.9752 18.2218C16.0303 17.6667 16.0594 17.1081 16.0594 16.5481C16.0587 15.3817 15.937 14.2185 15.696 13.0772C16.809 12.8083 17.9498 12.6722 19.0948 12.6717C19.1962 12.6717 19.2978 12.6734 19.3994 12.6755C19.2375 13.7847 18.8501 14.8491 18.2613 15.803C17.6724 16.7568 16.8944 17.58 15.9752 18.2218Z" fill="black"/>
</mask>
<g mask="url(#mask0_123_74)">
<path d="M21.8278 11.5628C21.8279 11.5418 21.8286 11.521 21.8286 11.5C21.8288 9.93516 21.4803 8.38993 20.8083 6.9767C20.1363 5.56347 19.1578 4.31776 17.944 3.33016C17.9247 3.3121 17.9057 3.29374 17.8849 3.27676C17.8583 3.25501 17.8306 3.23532 17.8027 3.21629C16.2553 1.99553 14.3964 1.23352 12.4374 1.01692C10.4784 0.800313 8.49788 1.13783 6.72118 1.99106C6.6688 2.01248 6.61805 2.03766 6.5693 2.0664C5.13375 2.78616 3.88082 3.82317 2.90541 5.09888C1.93001 6.37459 1.2577 7.85555 0.93943 9.42958C0.938667 9.43339 0.937428 9.43697 0.936712 9.44078C0.935997 9.44441 0.935854 9.44798 0.935187 9.45166C0.550385 11.3973 0.722245 13.412 1.43102 15.2643C2.1398 17.1167 3.35675 18.7315 4.94204 19.9233C4.9945 19.97 5.05104 20.0119 5.11099 20.0485L5.11538 20.051C6.48977 21.0443 8.08369 21.691 9.76162 21.9362C11.4396 22.1814 13.1519 22.0178 14.753 21.4593C14.7964 21.4467 14.839 21.4317 14.8806 21.4143C16.9004 20.6781 18.6477 19.3433 19.8889 17.588C21.1302 15.8328 21.8065 13.7406 21.8275 11.5909C21.8276 11.5815 21.8279 11.5721 21.8278 11.5628ZM19.4003 10.3317C19.2984 10.3299 19.1965 10.3279 19.0948 10.3279C17.7327 10.3287 16.3757 10.4947 15.0536 10.8223C14.7661 10.0264 14.4184 9.2536 14.0137 8.51047C15.1914 7.76357 16.2716 6.87304 17.2294 5.8594C18.3995 7.08884 19.1582 8.65181 19.4003 10.3317ZM15.3825 4.40004C14.5913 5.21324 13.7071 5.93049 12.7483 6.53699C11.8889 5.38189 10.8855 4.34122 9.76258 3.44022C11.6904 3.07404 13.6856 3.4148 15.3825 4.40004ZM7.13445 4.42679C8.47117 5.29755 9.65566 6.38212 10.6405 7.63714C8.86502 8.38331 6.95824 8.76693 5.03231 8.76544C4.54498 8.76544 4.0577 8.74031 3.57395 8.69191C4.23178 6.90121 5.49005 5.39392 7.13445 4.42679ZM3.07861 11.5C3.07861 11.3313 3.08538 11.1641 3.09545 10.9979C3.73842 11.0718 4.3851 11.109 5.03231 11.1092C7.41792 11.1113 9.77656 10.6048 11.9509 9.62332C12.288 10.2407 12.5792 10.882 12.8221 11.5421C12.0986 11.8322 11.3963 12.1728 10.7205 12.5614C8.65958 13.7516 6.87321 15.3635 5.4783 17.2918C4.71699 16.5317 4.11315 15.6289 3.70137 14.635C3.28959 13.6411 3.07796 12.5758 3.07861 11.5ZM7.35284 18.6989C8.55723 17.0238 10.104 15.624 11.8906 14.5921C12.3956 14.3018 12.9179 14.0427 13.4545 13.8162C13.6277 14.7165 13.7151 15.6313 13.7156 16.5481C13.7154 17.5111 13.6195 18.4718 13.4296 19.4159C11.3875 19.9717 9.20949 19.7147 7.35284 18.6989ZM15.9752 18.2218C16.0303 17.6667 16.0594 17.1081 16.0594 16.5481C16.0587 15.3817 15.937 14.2185 15.696 13.0772C16.809 12.8083 17.9498 12.6722 19.0948 12.6717C19.1962 12.6717 19.2978 12.6734 19.3994 12.6755C19.2375 13.7847 18.8501 14.8491 18.2613 15.803C17.6724 16.7568 16.8944 17.58 15.9752 18.2218Z" stroke="white" stroke-width="0.4"/>
</g>
</g>
<defs>
<clipPath id="clip0_123_74">
<rect width="23" height="23" fill="white"/>
</clipPath>
</defs>
</svg>
