<svg width="22" height="21" viewBox="0 0 22 21" fill="none" xmlns="http://www.w3.org/2000/svg">
<g clip-path="url(#clip0_30_222)">
<path d="M4.80652 6.91431H0.561523V20.5H4.80652V6.91431Z" fill="white"/>
<path d="M2.59464 0.5C1.02935 0.5 0 1.51234 0 2.85645C0 4.17503 0.995321 5.21289 2.53509 5.21289H2.56912C4.16844 5.21289 5.16376 4.16653 5.15525 2.85645C5.12123 1.51234 4.15993 0.5 2.59464 0.5Z" fill="white"/>
<path d="M16.4015 6.78674C13.9685 6.78674 12.4457 8.11384 12.165 9.04961V6.91435H7.39258C7.45213 8.04578 7.39258 20.5001 7.39258 20.5001H12.165V13.1585C12.165 12.7417 12.148 12.3333 12.2671 12.0441C12.5904 11.2274 13.2964 10.3767 14.564 10.3767C16.2229 10.3767 16.9715 11.6357 16.9715 13.4733V20.5001H21.7865V12.9458C21.7865 8.74336 19.4215 6.78674 16.4015 6.78674Z" fill="white"/>
</g>
<defs>
<clipPath id="clip0_30_222">
<rect width="21.778" height="20" fill="white" transform="translate(0 0.5)"/>
</clipPath>
</defs>
</svg>
